<svg width="162" height="162" viewBox="0 0 162 162" fill="none" xmlns="http://www.w3.org/2000/svg">
<circle cx="81" cy="81" r="81" fill="#078DD7"/>
<path d="M78.05 113V106H105.65V81.15C105.65 74.325 103.307 68.536 98.6223 63.783C93.9372 59.03 88.2298 56.6523 81.5 56.65C74.7702 56.6477 69.0639 59.0253 64.3811 63.783C59.6983 68.5407 57.3546 74.3297 57.35 81.15V102.5H53.9C52.0025 102.5 50.3787 101.815 49.0286 100.445C47.6785 99.0758 47.0023 97.4273 47 95.5V88.5C47 87.275 47.3024 86.1235 47.9073 85.0455C48.5122 83.9675 49.3598 83.1065 50.45 82.4625L50.7087 77.825C51.1687 73.8583 52.3049 70.1833 54.1173 66.8C55.9297 63.4167 58.201 60.4708 60.9311 57.9625C63.6612 55.4542 66.7938 53.5 70.3289 52.1C73.864 50.7 77.5877 50 81.5 50C85.4123 50 89.121 50.7 92.6262 52.1C96.1314 53.5 99.2652 55.4402 102.027 57.9205C104.79 60.4008 107.061 63.3315 108.841 66.7125C110.621 70.0935 111.771 73.7685 112.291 77.7375L112.55 82.2875C113.642 82.8125 114.491 83.6 115.096 84.65C115.701 85.7 116.002 86.8083 116 87.975V96.025C116 97.1917 115.699 98.3 115.096 99.35C114.493 100.4 113.645 101.187 112.55 101.712V106C112.55 107.925 111.875 109.573 110.525 110.945C109.175 112.317 107.55 113.002 105.65 113H78.05ZM71.15 88.5C70.1725 88.5 69.3537 88.164 68.6936 87.492C68.0335 86.82 67.7023 85.9893 67.7 85C67.6977 84.0107 68.0289 83.18 68.6936 82.508C69.3583 81.836 70.1771 81.5 71.15 81.5C72.1229 81.5 72.9428 81.836 73.6098 82.508C74.2768 83.18 74.6069 84.0107 74.6 85C74.5931 85.9893 74.2619 86.8212 73.6064 87.4955C72.9509 88.1698 72.1321 88.5047 71.15 88.5ZM91.85 88.5C90.8725 88.5 90.0537 88.164 89.3936 87.492C88.7335 86.82 88.4023 85.9893 88.4 85C88.3977 84.0107 88.7289 83.18 89.3936 82.508C90.0583 81.836 90.8771 81.5 91.85 81.5C92.8229 81.5 93.6428 81.836 94.3098 82.508C94.9768 83.18 95.3069 84.0107 95.3 85C95.2931 85.9893 94.9619 86.8212 94.3064 87.4955C93.6509 88.1698 92.8321 88.5047 91.85 88.5ZM60.8862 83.075C60.4837 76.8917 62.3237 71.5833 66.4062 67.15C70.4887 62.7167 75.5775 60.5 81.6725 60.5C86.79 60.5 91.2899 62.1473 95.1723 65.442C99.0547 68.7367 101.397 72.953 102.2 78.091C96.9675 78.0303 92.1524 76.6 87.7548 73.8C83.3572 71 79.9785 67.2083 77.6187 62.425C76.6987 67.0917 74.7587 71.2485 71.7986 74.8955C68.8385 78.5425 65.201 81.269 60.8862 83.075Z" fill="white"/>
</svg>
