<svg width="50" height="50" viewBox="0 0 50 50" fill="none" xmlns="http://www.w3.org/2000/svg">
<circle cx="25" cy="25" r="25" fill="#078DD7"/>
<path d="M25.1545 24.3364C24.1459 24.3364 23.1786 23.9869 22.4654 23.3646C21.7522 22.7424 21.3516 21.8985 21.3516 21.0185C21.3516 20.1386 21.7522 19.2946 22.4654 18.6724C23.1786 18.0502 24.1459 17.7006 25.1545 17.7006C26.1631 17.7006 27.1304 18.0502 27.8436 18.6724C28.5567 19.2946 28.9574 20.1386 28.9574 21.0185C28.9574 21.4542 28.859 21.8857 28.6679 22.2882C28.4768 22.6908 28.1967 23.0565 27.8436 23.3646C27.4904 23.6727 27.0712 23.9171 26.6098 24.0839C26.1484 24.2506 25.6539 24.3364 25.1545 24.3364ZM25.1545 11.7284C22.3304 11.7284 19.622 12.7072 17.6251 14.4494C15.6282 16.1916 14.5063 18.5546 14.5063 21.0185C14.5063 27.9861 25.1545 38.2716 25.1545 38.2716C25.1545 38.2716 35.8026 27.9861 35.8026 21.0185C35.8026 18.5546 34.6808 16.1916 32.6839 14.4494C30.687 12.7072 27.9786 11.7284 25.1545 11.7284Z" fill="white"/>
</svg>
