<svg width="50" height="50" viewBox="0 0 50 50" fill="none" xmlns="http://www.w3.org/2000/svg">
<circle cx="25" cy="25" r="25" fill="#078DD7"/>
<path d="M16.887 21.1775V18.7748C16.887 18.2943 17.2838 17.9011 17.7688 17.9011H35.8464C36.3314 17.9011 36.7282 18.2943 36.7282 18.7748V27.9486C36.7282 28.4291 36.3314 28.8223 35.8464 28.8223H33.4213M14.4619 21.1775H32.5395C32.7734 21.1775 32.9977 21.2695 33.1631 21.4334C33.3284 21.5972 33.4213 21.8195 33.4213 22.0512V31.225C33.4213 31.4567 33.3284 31.6789 33.1631 31.8428C32.9977 32.0066 32.7734 32.0987 32.5395 32.0987H14.4619C14.228 32.0987 14.0037 32.0066 13.8384 31.8428C13.673 31.6789 13.5801 31.4567 13.5801 31.225V22.0512C13.5801 21.8195 13.673 21.5972 13.8384 21.4334C14.0037 21.2695 14.228 21.1775 14.4619 21.1775ZM24.603 26.6381C24.603 26.9277 24.4869 27.2055 24.2802 27.4103C24.0734 27.6151 23.7931 27.7302 23.5007 27.7302C23.2084 27.7302 22.928 27.6151 22.7213 27.4103C22.5146 27.2055 22.3984 26.9277 22.3984 26.6381C22.3984 26.3484 22.5146 26.0706 22.7213 25.8658C22.928 25.661 23.2084 25.5459 23.5007 25.5459C23.7931 25.5459 24.0734 25.661 24.2802 25.8658C24.4869 26.0706 24.603 26.3484 24.603 26.6381Z" stroke="white" stroke-width="4" stroke-miterlimit="10" stroke-linejoin="round"/>
</svg>
