<svg width="50" height="50" viewBox="0 0 50 50" fill="none" xmlns="http://www.w3.org/2000/svg">
<circle cx="25" cy="25" r="25" fill="#078DD7"/>
<path d="M25.154 38.2716C22.0705 37.4974 19.5247 35.7332 17.5166 32.9789C15.5086 30.2246 14.505 27.1668 14.5059 23.8056V15.7099L25.154 11.7284L35.8022 15.7099V23.8056C35.8022 27.1677 34.7986 30.2259 32.7914 32.9802C30.7842 35.7345 28.2384 37.4983 25.154 38.2716ZM25.154 35.4846C27.4611 34.7546 29.3689 33.2948 30.8774 31.1049C32.3859 28.9151 33.1401 26.482 33.1401 23.8056V17.5347L25.154 14.5486L17.1679 17.5347V23.8056C17.1679 26.482 17.9221 28.9151 19.4306 31.1049C20.9391 33.2948 22.8469 34.7546 25.154 35.4846Z" fill="white"/>
</svg>
